<svg width="24" height="24" viewBox="0 0 24 24" fill="none" xmlns="http://www.w3.org/2000/svg">
<path fill-rule="evenodd" clip-rule="evenodd" d="M12.586 4.49533L17.5764 7.27103L12.9892 1C12.2331 2.02804 12.0819 3.36449 12.586 4.49533Z" fill="url(#paint0_linear_64_1480)"/>
<path fill-rule="evenodd" clip-rule="evenodd" d="M10.3178 14.7246C10.9227 14.7246 11.4268 15.2386 11.4268 15.9069C11.4268 16.5237 10.9227 17.0377 10.2674 17.0377C9.66253 17.0377 9.15845 16.5237 9.15845 15.9069C9.20886 15.29 9.71293 14.7246 10.3178 14.7246Z" fill="url(#paint1_linear_64_1480)"/>
<path fill-rule="evenodd" clip-rule="evenodd" d="M6.88899 1.9248L20.8015 9.63509C21.1544 9.78929 21.2552 10.2005 21.104 10.5603C21.0536 10.7145 20.9528 10.8173 20.8015 10.8687C19.743 11.537 18.5836 11.9996 17.3738 12.2052L14.4502 18.2706C14.4502 18.2706 13.5428 20.3781 11.0224 19.5556C12.081 18.4762 13.3412 17.4996 13.3412 15.8547C13.3412 14.107 11.9802 12.7192 10.2663 12.7192C8.55244 12.7192 7.19143 14.107 7.19143 15.8547C7.19143 18.0136 9.30856 18.9388 10.4679 20.4295C10.972 21.2005 10.9216 22.2285 10.3167 22.8968C8.9053 21.4575 6.13287 18.9902 4.97349 17.3968C4.36859 16.5743 4.01574 15.5977 3.96533 14.5697C4.06615 12.308 5.57838 10.3547 7.69551 9.68649C8.35081 9.48088 9.00611 9.42948 9.66142 9.42948C10.5688 9.48088 11.4761 9.78929 12.2826 10.2519C13.5428 10.9715 14.0973 10.8173 14.9542 10.0463C15.4583 9.63509 16.0128 8.24723 15.1559 7.93882C14.8534 7.83602 14.6014 7.78462 14.2989 7.73322C12.7363 7.42481 9.96386 7.11639 8.95571 6.55097C7.34266 5.62574 6.23368 3.72387 6.88899 1.9248Z" fill="url(#paint2_linear_64_1480)"/>
<path fill-rule="evenodd" clip-rule="evenodd" d="M13.3412 15.9064C13.9965 12.4625 10.5688 9.17277 7.89714 9.63539L8.09877 9.58398C7.94755 9.63539 7.79633 9.63539 7.69551 9.68679C5.57838 10.355 4.06615 12.3083 3.96533 14.57C3.96533 15.598 4.31819 16.626 4.97349 17.3971C6.13287 18.9905 8.9053 21.4578 10.3671 22.9485C10.972 22.2802 11.0728 21.2522 10.5183 20.4812C9.30856 18.9905 7.24184 18.0653 7.24184 15.9064C7.24184 14.1588 8.60285 12.7709 10.3167 12.7709C12.0306 12.7709 13.3916 14.1588 13.3412 15.9064Z" fill="url(#paint3_linear_64_1480)"/>
<path fill-rule="evenodd" clip-rule="evenodd" d="M6.89012 1.9248L17.4758 7.78462L17.7782 7.93882C18.0303 8.14443 18.2823 8.55565 17.9798 9.27527C17.4758 10.3547 15.4595 11.4342 13.1407 10.6117C13.8464 10.8173 14.3505 10.5603 15.0058 10.0463C15.5099 9.63509 16.0643 8.24723 15.2074 7.93882C14.905 7.83602 14.6529 7.78462 14.3505 7.73322C12.7878 7.42481 10.0154 7.11639 9.00725 6.55097C7.34379 5.62574 6.23482 3.72387 6.89012 1.9248Z" fill="url(#paint4_linear_64_1480)"/>
<path fill-rule="evenodd" clip-rule="evenodd" d="M6.8894 1.9248C7.99838 6.03695 14.6522 6.39677 17.9791 8.09303L6.8894 1.9248Z" fill="url(#paint5_linear_64_1480)"/>
<path fill-rule="evenodd" clip-rule="evenodd" d="M10.5189 20.4811C9.35956 18.9905 7.24243 18.0653 7.24243 15.9064C7.24243 14.3129 8.40181 13.0279 9.91405 12.8223C7.49447 12.8223 5.52856 14.8269 5.52856 17.3456C5.52856 17.654 5.57897 17.9625 5.62938 18.2709C6.58713 19.4017 7.99855 20.6868 9.15793 21.8176C9.6116 22.2288 10.0653 22.6914 10.3677 22.9998C10.6702 22.64 10.8214 22.2288 10.8718 21.7662C10.9222 21.3036 10.771 20.841 10.5189 20.4811Z" fill="url(#paint6_linear_64_1480)"/>
<path fill-rule="evenodd" clip-rule="evenodd" d="M13.3422 16.2662C13.3422 16.1634 13.3422 16.0092 13.3422 15.9064C13.9975 12.4625 10.5194 9.17278 7.89819 9.6354C8.45268 9.48119 9.05757 9.42979 9.61206 9.48119C13.0902 9.58399 14.0984 13.3877 13.3422 16.2662Z" fill="url(#paint7_linear_64_1480)"/>
<path fill-rule="evenodd" clip-rule="evenodd" d="M3.15938 8.60742C3.76427 8.60742 4.31876 9.12144 4.31876 9.78966V10.9719H3.15938C2.55449 10.9719 2 10.4579 2 9.78966C2 9.17284 2.50408 8.60742 3.15938 8.60742Z" fill="url(#paint8_linear_64_1480)"/>
<defs>
<linearGradient id="paint0_linear_64_1480" x1="10.4941" y1="4.13808" x2="20.3942" y2="4.13808" gradientUnits="userSpaceOnUse">
<stop stop-color="#FBAA19"/>
<stop offset="1" stop-color="#EF3E23"/>
</linearGradient>
<linearGradient id="paint1_linear_64_1480" x1="9.95061" y1="16.9763" x2="10.754" y2="14.8224" gradientUnits="userSpaceOnUse">
<stop stop-color="#F78D1E"/>
<stop offset="1" stop-color="#F37121"/>
</linearGradient>
<linearGradient id="paint2_linear_64_1480" x1="3.79415" y1="17.7208" x2="16.1089" y2="4.77614" gradientUnits="userSpaceOnUse">
<stop stop-color="#FEBE2D"/>
<stop offset="1" stop-color="#F04E23"/>
</linearGradient>
<linearGradient id="paint3_linear_64_1480" x1="12.3344" y1="10.0267" x2="5.47565" y2="20.38" gradientUnits="userSpaceOnUse">
<stop stop-color="#EA4425"/>
<stop offset="1" stop-color="#FDBB27"/>
</linearGradient>
<linearGradient id="paint4_linear_64_1480" x1="2.12154" y1="6.43373" x2="23.192" y2="6.43373" gradientUnits="userSpaceOnUse">
<stop stop-color="#F47920"/>
<stop offset="1" stop-color="#E93825"/>
</linearGradient>
<linearGradient id="paint5_linear_64_1480" x1="-9.00922" y1="5.00378" x2="33.8626" y2="5.00378" gradientUnits="userSpaceOnUse">
<stop stop-color="#FDCA0B"/>
<stop offset="1" stop-color="#F5841F"/>
</linearGradient>
<linearGradient id="paint6_linear_64_1480" x1="6.30721" y1="10.2874" x2="10.932" y2="26.1073" gradientUnits="userSpaceOnUse">
<stop stop-color="#E73C25"/>
<stop offset="1" stop-color="#FAA21B"/>
</linearGradient>
<linearGradient id="paint7_linear_64_1480" x1="-23.894" y1="12.8636" x2="39.7459" y2="12.8636" gradientUnits="userSpaceOnUse">
<stop stop-color="#FDBA12"/>
<stop offset="1" stop-color="#F7921E"/>
</linearGradient>
<linearGradient id="paint8_linear_64_1480" x1="2.04044" y1="9.59367" x2="4.42751" y2="10.0094" gradientUnits="userSpaceOnUse">
<stop stop-color="#FEBE2D"/>
<stop offset="1" stop-color="#F04E23"/>
</linearGradient>
</defs>
</svg>
