<svg width="24" height="24" viewBox="0 0 24 24" fill="none" xmlns="http://www.w3.org/2000/svg">
<path fill-rule="evenodd" clip-rule="evenodd" d="M22.5 3.6C22.5 2.44101 21.559 1.5 20.4 1.5H3.6C2.44101 1.5 1.5 2.44101 1.5 3.6V20.4C1.5 21.559 2.44101 22.5 3.6 22.5H20.4C21.559 22.5 22.5 21.559 22.5 20.4V3.6Z" fill="#7742E6"/>
<path fill-rule="evenodd" clip-rule="evenodd" d="M19.0668 6.47852C19.0668 6.47852 10.0082 8.9057 6.3952 9.87387C5.5328 10.1049 4.93311 10.8864 4.93311 11.7793C4.93311 12.458 4.93311 13.1085 4.93311 13.1085C4.93311 13.1085 12.2099 11.1587 16.3208 10.0572C17.9405 9.6232 19.0668 8.15537 19.0668 6.47852Z" fill="white"/>
<path fill-rule="evenodd" clip-rule="evenodd" d="M13.6422 12.3447C13.6422 12.3447 8.87571 13.6219 6.3952 14.2866C5.5328 14.5177 4.93311 15.2991 4.93311 16.192C4.93311 16.8707 4.93311 17.5212 4.93311 17.5212C4.93311 17.5212 8.34357 16.6074 10.8961 15.9235C12.5159 15.4895 13.6422 14.0216 13.6422 12.3448V12.3447Z" fill="white"/>
</svg>
