<svg width="160" height="32" viewBox="0 0 160 32" fill="none" xmlns="http://www.w3.org/2000/svg">
<path d="M28.8 0H3.2C1.43269 0 0 1.43269 0 3.2V28.8C0 30.5673 1.43269 32 3.2 32H28.8C30.5673 32 32 30.5673 32 28.8V3.2C32 1.43269 30.5673 0 28.8 0Z" fill="#DD1F13"/>
<path d="M19.2289 11.3156L11.9206 7.09616C10.5631 6.31241 8.86624 7.29209 8.86624 8.85959V13.7716C8.86624 15.3391 10.5631 16.3188 11.9206 15.535L19.2289 11.3156ZM22.7029 18.6774C24.7644 17.4872 24.7644 14.5115 22.7028 13.3213C22.488 13.1973 22.2234 13.1973 22.0086 13.3213L10.1126 20.1895C9.34137 20.6348 8.86624 21.4577 8.86624 22.3483C8.86624 24.2673 10.9436 25.4667 12.6054 24.5072L22.7029 18.6774Z" fill="white"/>
<path d="M44.1428 8.28455C44.4331 8.25555 44.6546 8.29542 44.807 8.40442C44.9594 8.51336 45.0356 8.68411 45.0356 8.91655C45.0356 9.36698 44.7888 9.61405 44.2952 9.65761L43.6637 9.70117C42.8362 9.7593 42.2192 10.0099 41.8127 10.4531C41.4061 10.8962 41.1666 11.561 41.094 12.4473L41.0505 13.0575H43.4242C43.6564 13.0575 43.8343 13.1192 43.9577 13.2427C44.0811 13.3662 44.1428 13.5297 44.1428 13.7332C44.1428 13.9511 44.0775 14.1254 43.9468 14.2562C43.8162 14.387 43.6274 14.4523 43.3806 14.4523H40.9416L40.2665 22.9303C40.252 23.2064 40.1576 23.417 39.9834 23.5624C39.8092 23.7076 39.5987 23.7804 39.3519 23.7804C39.1051 23.7804 38.8982 23.7076 38.7313 23.5624C38.5643 23.417 38.4881 23.2064 38.5026 22.9303L39.1777 14.4523H37.7186C37.4864 14.4523 37.3085 14.3905 37.1851 14.267C37.0617 14.1435 37 13.9802 37 13.7767C37 13.5588 37.0654 13.3844 37.1959 13.2536C37.3266 13.1229 37.5226 13.0575 37.784 13.0575H39.2866L39.3084 12.6652C39.4099 11.2558 39.8238 10.1988 40.5496 9.49411C41.2756 8.78942 42.3281 8.39355 43.7073 8.3063L44.1428 8.28455Z" fill="#2C2C2C"/>
<path d="M46.2983 23.7805C46.0516 23.7805 45.8483 23.7078 45.6886 23.5626C45.5289 23.4173 45.4563 23.1993 45.4709 22.9087L46.5814 9.00397C46.5959 8.72784 46.6976 8.52084 46.8864 8.38284C47.0751 8.24478 47.2929 8.17578 47.5397 8.17578C47.7864 8.17578 47.9861 8.24478 48.1385 8.38284C48.291 8.52084 48.3599 8.72784 48.3454 9.00397L47.2348 22.9087C47.2203 23.1993 47.1223 23.4173 46.9408 23.5626C46.7593 23.7078 46.5452 23.7805 46.2983 23.7805Z" fill="#2C2C2C"/>
<path d="M58.951 12.8398C59.2123 12.8398 59.4192 12.9161 59.5716 13.0687C59.7241 13.2212 59.7857 13.4355 59.7567 13.7116L59.0163 22.9742C59.0018 23.2212 58.9038 23.4173 58.7223 23.5627C58.5408 23.7079 58.3267 23.7806 58.0799 23.7806C57.8331 23.7806 57.6371 23.7115 57.4919 23.5735C57.3467 23.4355 57.2814 23.243 57.2959 22.996L57.383 21.9498C57.0201 22.5456 56.5337 23.0068 55.924 23.3338C55.3142 23.6607 54.6319 23.8242 53.8769 23.8242C52.7011 23.8242 51.8082 23.5154 51.1984 22.8978C50.5887 22.2804 50.2838 21.376 50.2838 20.1845C50.2838 19.923 50.2911 19.7268 50.3056 19.5961L50.7629 13.7116C50.7919 13.4355 50.8971 13.2212 51.0787 13.0687C51.2601 12.9161 51.4743 12.8398 51.7211 12.8398C51.9824 12.8398 52.1893 12.9161 52.3418 13.0687C52.4941 13.2212 52.5558 13.4355 52.5268 13.7116L52.0695 19.4871C52.0549 19.5888 52.0477 19.7413 52.0477 19.9447C52.0477 21.543 52.8099 22.3422 54.3343 22.3422C55.2779 22.3422 56.0329 22.0515 56.5991 21.4704C57.1652 20.8892 57.4847 20.0828 57.5573 19.0512L57.9927 13.7116C58.0218 13.4355 58.1271 13.2212 58.3086 13.0687C58.49 12.9161 58.7042 12.8398 58.951 12.8398Z" fill="#2C2C2C"/>
<path d="M63.5894 18.6357V18.723C63.5894 19.8853 63.8756 20.7861 64.4494 21.4254C65.0225 22.0647 65.8538 22.3844 66.9425 22.3844C68.0894 22.3844 69.0988 22.0647 69.97 21.4254C70.115 21.3237 70.26 21.2729 70.405 21.2729C70.5794 21.2729 70.7213 21.3382 70.83 21.469C70.9388 21.5997 70.9931 21.7523 70.9931 21.9267C70.9931 22.1882 70.8769 22.4279 70.645 22.6459C70.2531 22.9946 69.705 23.278 69.0006 23.4959C68.2963 23.7139 67.5813 23.8228 66.8556 23.8228C65.3169 23.8228 64.0938 23.3579 63.1863 22.4279C62.2789 21.4981 61.8252 20.2485 61.8252 18.6793C61.8252 17.517 62.0394 16.4927 62.4676 15.6063C62.8963 14.72 63.5056 14.0299 64.2969 13.5359C65.0881 13.0419 66.0063 12.7949 67.0519 12.7949C68.4744 12.7949 69.5631 13.2199 70.3181 14.0699C71.0731 14.9198 71.4506 16.1512 71.4506 17.764C71.4506 18.04 71.3781 18.2544 71.2331 18.4069C71.0875 18.5595 70.8919 18.6357 70.645 18.6357H63.5894ZM67.1169 14.168C66.1444 14.168 65.3675 14.4549 64.7869 15.0288C64.2063 15.6027 63.8356 16.4273 63.6763 17.5025H69.8606C69.9044 16.4127 69.6831 15.5845 69.1969 15.0179C68.7106 14.4512 68.0169 14.168 67.1169 14.168Z" fill="#2C2C2C"/>
<path d="M79.5512 12.7949C80.7419 12.7949 81.6494 13.1073 82.2737 13.732C82.8975 14.3569 83.21 15.2649 83.21 16.4564C83.21 16.7179 83.2025 16.914 83.1881 17.0447L82.7306 22.9074C82.7019 23.198 82.6 23.416 82.4262 23.5613C82.2519 23.7065 82.0412 23.7792 81.7944 23.7792C81.5187 23.7792 81.3044 23.7065 81.1519 23.5613C80.9994 23.416 80.9381 23.198 80.9669 22.9074L81.4244 17.1537C81.4387 17.052 81.4462 16.8995 81.4462 16.6961C81.4462 15.0833 80.6694 14.2769 79.1156 14.2769C78.1287 14.2769 77.345 14.5711 76.7637 15.1595C76.1831 15.748 75.8494 16.558 75.7625 17.5896L75.3269 22.9074C75.3119 23.198 75.2175 23.416 75.0437 23.5613C74.8694 23.7065 74.6519 23.7792 74.39 23.7792C74.1287 23.7792 73.9219 23.7065 73.7694 23.5613C73.6175 23.416 73.5481 23.198 73.5625 22.9074L74.325 13.6667C74.3394 13.4052 74.4375 13.2017 74.6187 13.0564C74.8006 12.9111 75.0144 12.8385 75.2612 12.8385C75.5081 12.8385 75.7044 12.9111 75.8494 13.0564C75.9944 13.2017 76.06 13.3979 76.0456 13.6449L75.9581 14.691C76.3212 14.0952 76.815 13.6304 77.4394 13.2962C78.0631 12.962 78.7675 12.7949 79.5512 12.7949Z" fill="#2C2C2C"/>
<path d="M88.545 19.8349C88.5306 19.9366 88.5231 20.082 88.5231 20.2708C88.5231 20.9683 88.6831 21.4986 89.0025 21.8618C89.3219 22.225 89.7719 22.4067 90.3525 22.4067C90.5413 22.4067 90.7225 22.3957 90.8969 22.374C91.0713 22.3521 91.2019 22.3413 91.2888 22.3413C91.4344 22.3413 91.5538 22.3994 91.6481 22.5156C91.7425 22.6318 91.79 22.7917 91.79 22.9951C91.79 23.3002 91.6631 23.5146 91.4088 23.6381C91.155 23.7615 90.7081 23.8233 90.0694 23.8233C89.0244 23.8233 88.2113 23.5255 87.6306 22.9297C87.05 22.334 86.7594 21.4913 86.7594 20.4016C86.7594 20.1981 86.7669 20.0383 86.7813 19.9221L87.195 14.4517H85.7575C85.5256 14.4517 85.3475 14.39 85.2244 14.2665C85.1006 14.143 85.0388 13.9795 85.0388 13.7761C85.0388 13.5436 85.1081 13.3656 85.2463 13.2421C85.3838 13.1186 85.5763 13.0569 85.8231 13.0569H87.3038L87.5 10.5723C87.5288 10.3253 87.6269 10.1256 87.7938 9.97302C87.9606 9.82045 88.175 9.74414 88.4363 9.74414C88.7119 9.74414 88.9263 9.82408 89.0788 9.98389C89.2313 10.1438 89.2925 10.3544 89.2638 10.6159L89.0681 13.0569H91.4631C91.6813 13.0569 91.855 13.1186 91.9856 13.2421C92.1163 13.3656 92.1819 13.5291 92.1819 13.7326C92.1819 13.965 92.1163 14.143 91.9856 14.2665C91.855 14.39 91.6663 14.4517 91.42 14.4517H88.9588L88.545 19.8349Z" fill="#2C2C2C"/>
<path d="M153.316 14.7989C153.576 14.1029 154.004 13.5809 154.599 13.2329C155.208 12.8849 155.882 12.7109 156.621 12.7109V15.8429C155.766 15.7414 154.998 15.9154 154.316 16.3649C153.649 16.8144 153.316 17.5612 153.316 18.6052V23.8034H150.509V12.9284H153.316V14.7989Z" fill="#2C2C2C"/>
<path d="M140.242 19.5178C140.619 20.8808 141.642 21.5623 143.309 21.5623C144.382 21.5623 145.194 21.1998 145.745 20.4748L148.008 21.7798C146.934 23.3313 145.354 24.107 143.266 24.107C141.467 24.107 140.025 23.5633 138.938 22.4758C137.85 21.3883 137.306 20.018 137.306 18.365C137.306 16.7265 137.842 15.3635 138.916 14.276C139.989 13.174 141.366 12.623 143.048 12.623C144.643 12.623 145.956 13.174 146.985 14.276C148.029 15.378 148.551 16.741 148.551 18.365C148.551 18.7275 148.515 19.1118 148.443 19.5178H140.242ZM140.199 17.3428H145.745C145.586 16.6033 145.252 16.0523 144.745 15.6898C144.252 15.3273 143.686 15.146 143.048 15.146C142.294 15.146 141.671 15.3418 141.178 15.7333C140.685 16.1103 140.359 16.6468 140.199 17.3428Z" fill="#2C2C2C"/>
<path d="M133.96 12.9277H136.961L133.002 23.8027C132.437 25.3687 131.683 26.4997 130.741 27.1957C129.812 27.9062 128.652 28.2252 127.261 28.1527V25.5427C128.015 25.5572 128.609 25.3977 129.044 25.0642C129.494 24.7307 129.849 24.1942 130.11 23.4547L125.651 12.9277H128.718L131.546 20.2357L133.96 12.9277Z" fill="#2C2C2C"/>
<path d="M121.519 12.9275H124.325V23.8025H121.519V22.5193C120.678 23.5778 119.496 24.107 117.974 24.107C116.524 24.107 115.277 23.556 114.233 22.454C113.204 21.3375 112.689 19.9745 112.689 18.365C112.689 16.7555 113.204 15.3998 114.233 14.2978C115.277 13.1813 116.524 12.623 117.974 12.623C119.496 12.623 120.678 13.1523 121.519 14.2108V12.9275ZM116.342 20.5835C116.908 21.149 117.626 21.4318 118.496 21.4318C119.366 21.4318 120.084 21.149 120.649 20.5835C121.229 20.0035 121.519 19.264 121.519 18.365C121.519 17.466 121.229 16.7338 120.649 16.1683C120.084 15.5883 119.366 15.2983 118.496 15.2983C117.626 15.2983 116.908 15.5883 116.342 16.1683C115.777 16.7338 115.494 17.466 115.494 18.365C115.494 19.264 115.777 20.0035 116.342 20.5835Z" fill="#2C2C2C"/>
<path d="M107.881 23.8033V7.92578H110.686V23.8033H107.881Z" fill="#2C2C2C"/>
<path d="M100.859 8.57812C102.323 8.57812 103.556 9.07113 104.556 10.0571C105.557 11.0431 106.057 12.2539 106.057 13.6894C106.057 15.1249 105.557 16.3356 104.556 17.3216C103.556 18.3076 102.323 18.8006 100.859 18.8006H98.1831V23.8031H95.1819V8.57812H100.859ZM100.859 15.9949C101.497 15.9949 102.026 15.7774 102.446 15.3424C102.867 14.8929 103.077 14.3419 103.077 13.6894C103.077 13.0224 102.867 12.4714 102.446 12.0364C102.026 11.6014 101.497 11.3839 100.859 11.3839H98.1831V15.9949H100.859Z" fill="#2C2C2C"/>
</svg>
